PathFileType  4	(X/Y/Z) C:\Users\antoi\Documents\MyRepositories\mobilecap\ResultsAnalysis
DataRate	CameraRate	NumFrames	NumMarkers	Units	OrigDataRate	OrigDataStartFrame	OrigNumFrames
100.0	100.0	7	51	mm	100.0	117	311
Frame#	Time	r_knee			r_shank_antsup			r_ankle			r_calc			r_5meta			r_toe			L_knee			L_shank_antsup			L_ankle			L_calc			L_5meta			L_toe			r_sh2			r_sh3			r_sh4			L_sh2			L_sh3			r_thigh1			r_thigh2			r_thigh3			r_thigh4			r_thigh5			L_thigh1			L_thigh2			L_thigh3			L_thigh4			r.ASIS			r.PSIS			L.ASIS			L.PSIS			C7			R_Shoulder			L_Shoulder			R_Sternum			L_Sternum			R_humerus			R_elbow_med			R_elbow_lat			R_forearm			R_wrist_radius			R_wrist_ulna			L_humerus			L_elbow_med			L_elbow_lat			L_forearm			L_wrist_radius			L_wrist_ulna			R_HJC			L_HJC			R_HJC_reg			L_HJC_reg			
		X1	Y1	Z1	X2	Y2	Z2	X3	Y3	Z3	X4	Y4	Z4	X5	Y5	Z5	X6	Y6	Z6	X7	Y7	Z7	X8	Y8	Z8	X9	Y9	Z9	X10	Y10	Z10	X11	Y11	Z11	X12	Y12	Z12	X13	Y13	Z13	X14	Y14	Z14	X15	Y15	Z15	X16	Y16	Z16	X17	Y17	Z17	X18	Y18	Z18	X19	Y19	Z19	X20	Y20	Z20	X21	Y21	Z21	X22	Y22	Z22	X23	Y23	Z23	X24	Y24	Z24	X25	Y25	Z25	X26	Y26	Z26	X27	Y27	Z27	X28	Y28	Z28	X29	Y29	Z29	X30	Y30	Z30	X31	Y31	Z31	X32	Y32	Z32	X33	Y33	Z33	X34	Y34	Z34	X35	Y35	Z35	X36	Y36	Z36	X37	Y37	Z37	X38	Y38	Z38	X39	Y39	Z39	X40	Y40	Z40	X41	Y41	Z41	X42	Y42	Z42	X43	Y43	Z43	X44	Y44	Z44	X45	Y45	Z45	X46	Y46	Z46	X47	Y47	Z47	X48	Y48	Z48	X49	Y49	Z49	X50	Y50	Z50	X51	Y51	Z51	

117	1.16000000	-687.60792	858.45907	-415.23033	-667.12362	786.57383	-418.82043	-873.15984	521.20100	-435.54555	-929.48440	543.08803	-484.08047	-840.21176	405.56580	-416.49060	-791.74335	395.20340	-465.81075	-687.79244	862.56108	-764.21690	-703.79760	768.87216	-759.04528	-961.93495	593.52547	-766.39950	-1020.95012	611.55529	-714.45182	-947.52063	476.66507	-797.19277	-891.54481	452.13087	-753.48944	-733.14026	695.11961	-410.07922	-723.00364	831.98256	-390.80825	-798.81860	741.03085	-391.46474	-748.57117	839.42425	-794.51570	-840.64441	756.52727	-802.15291	-710.76779	1108.23999	-381.79323	-674.78521	1000.47121	-388.84142	-778.17132	966.12187	-420.55119	-816.73950	1075.50125	-404.29068	-731.39923	960.12875	-392.65371	-709.57159	1142.76903	-780.68377	-670.77921	1009.51137	-774.93819	-818.03388	1113.88069	-779.80038	-780.81939	979.18235	-755.30823	-681.75749	1289.99285	-476.10182	-867.02245	1378.39681	-539.31147	-686.68089	1298.15164	-681.58600	-865.20688	1381.82646	-619.35065	-676.35357	1764.73966	-557.20344	-639.14760	1732.02756	-435.26805	-642.51121	1750.57561	-670.71905	-565.66967	1692.63843	-529.49800	-563.27233	1690.50692	-575.35461	-603.51001	1682.24769	-338.75244	-623.77928	1506.82836	-203.74490	-598.82453	1565.25061	-171.32858	-505.70511	1576.64950	-184.99497	-368.19654	1551.16360	-209.63959	-368.00998	1536.76463	-174.17092	-606.29020	1742.61345	-768.07927	-506.81152	1604.65466	-921.40284	-511.29460	1675.30681	-933.08025	-412.31463	1710.90416	-910.67654	-294.28584	1726.61502	-866.59107	-284.37478	1714.07609	-904.20672	-783.52678	1229.54551	-476.59314	-784.20576	1238.91260	-683.88797	-769.06224	1249.22211	-507.42020	-765.98533	1255.03277	-643.02618	
118	1.17000000	-677.02640	861.62601	-414.89551	-654.75060	790.60452	-417.07927	-848.32105	515.99530	-433.86109	-905.53771	536.53758	-482.58937	-811.93407	400.80586	-417.12618	-763.43605	392.55428	-466.61534	-674.26203	868.03506	-767.05841	-688.60335	775.14833	-763.51395	-942.61711	593.96900	-771.34849	-1002.18305	611.65750	-720.12396	-925.58469	476.76111	-799.72525	-869.13134	454.71800	-755.39078	-716.74495	696.16129	-408.88939	-713.62335	832.69624	-390.31069	-784.19355	738.56951	-390.30049	-735.25562	845.37834	-796.46732	-825.93783	761.28463	-804.72558	-701.36150	1111.70201	-381.31283	-664.88397	1004.06577	-388.28996	-768.16677	969.35415	-419.88961	-807.38329	1078.35304	-403.61041	-721.37184	963.52023	-392.18276	-697.98596	1147.49276	-781.24617	-657.43854	1014.65133	-776.62346	-806.02318	1117.10616	-780.99282	-767.16926	982.70174	-757.13307	-672.42544	1293.20053	-475.27606	-857.91690	1381.17362	-538.75964	-677.01266	1301.69792	-681.35049	-856.23454	1384.73406	-618.94903	-665.55562	1768.71173	-556.52935	-628.63787	1735.42701	-434.08586	-631.94252	1754.39734	-670.53242	-555.09816	1695.96747	-528.96503	-552.87096	1693.98095	-574.72516	-593.64554	1685.01637	-338.01685	-615.33053	1509.07887	-203.52317	-590.76736	1567.62336	-170.65722	-497.23700	1577.29425	-183.98895	-359.83141	1549.52561	-204.79377	-360.41097	1535.32033	-169.23256	-596.47266	1746.16904	-768.42950	-498.97985	1608.10714	-922.51283	-503.55286	1678.87494	-934.24341	-404.24710	1714.06799	-912.76472	-285.72728	1729.42624	-870.36433	-276.25242	1716.59511	-907.82872	-774.01854	1232.45480	-476.28079	-774.47580	1242.16900	-683.56003	-759.44336	1252.10765	-506.63390	-756.59081	1258.14541	-642.62835	
119	1.18000000	-666.78554	863.72192	-414.76869	-642.61436	793.22631	-416.24253	-822.66952	510.07547	-432.34914	-880.75216	529.51269	-480.63515	-783.01266	395.78345	-417.26542	-734.88786	389.31406	-467.07726	-661.06529	872.60276	-769.97794	-673.26023	780.25538	-767.70121	-921.93335	591.98140	-776.79358	-982.36586	608.99195	-726.52846	-901.73530	474.28520	-802.12072	-844.93694	455.21288	-757.23294	-700.14691	696.08789	-407.92362	-703.60262	832.50304	-389.62900	-769.38699	735.46769	-388.62624	-721.89881	849.73034	-798.61209	-810.48287	764.07711	-808.36591	-692.00343	1114.26014	-380.79422	-655.11113	1006.88221	-388.00004	-758.42128	971.69356	-419.63453	-797.88700	1080.74891	-403.11772	-711.59432	966.06659	-391.95085	-687.27158	1151.18041	-781.92735	-645.20161	1018.72362	-778.37014	-794.84490	1119.49627	-782.13981	-754.48025	985.66289	-758.52109	-663.06775	1295.72726	-474.35904	-849.01973	1382.79385	-538.35217	-667.55196	1304.68328	-681.15657	-847.46264	1386.27484	-618.52032	-654.49361	1771.80571	-555.65906	-617.84989	1737.87629	-433.24254	-621.12949	1757.22150	-670.16720	-544.36658	1698.23788	-528.34305	-542.27976	1696.38838	-573.87369	-583.76033	1687.21256	-337.30498	-607.11452	1510.55021	-203.45870	-582.58575	1569.07739	-170.15699	-488.57303	1576.91758	-182.82052	-351.48151	1546.76728	-200.58632	-352.80738	1532.84144	-164.85439	-586.48217	1748.84787	-768.61950	-491.01443	1610.26195	-923.06954	-495.64872	1681.13104	-935.27553	-396.06346	1715.84775	-914.63566	-277.04090	1730.74163	-873.55516	-268.01509	1717.64059	-910.90228	-764.30651	1234.41057	-475.97331	-764.60186	1244.45003	-683.23758	-749.82782	1254.34006	-505.68041	-747.17804	1260.26528	-642.17259	
120	1.19000000	-656.68521	864.85885	-414.75110	-630.32806	794.77163	-416.12751	-796.60922	503.94302	-430.94263	-855.64264	522.32196	-478.47359	-753.96835	390.77200	-416.64094	-706.35073	385.69028	-467.03307	-647.81275	876.22586	-772.31137	-657.39795	784.13715	-771.12360	-900.04586	587.80863	-782.22183	-961.40159	604.17166	-733.25360	-876.58253	470.05630	-805.24333	-819.58580	453.69428	-759.77049	-683.26281	695.18011	-407.24474	-692.81232	831.39376	-389.39921	-753.98455	731.33088	-387.29321	-708.01255	852.61436	-801.14815	-793.98965	764.75278	-812.54835	-682.59998	1115.98641	-380.12855	-645.60744	1008.73574	-387.69501	-748.80260	973.28085	-419.44275	-788.29458	1082.37148	-402.84831	-701.92690	967.70199	-391.91678	-677.19712	1153.98973	-782.55168	-633.71904	1021.97181	-780.13117	-784.33194	1121.14650	-783.08314	-742.49094	987.93297	-759.29874	-653.64937	1297.53008	-473.67273	-840.29881	1383.19840	-538.01243	-658.25660	1306.94498	-680.91747	-838.88108	1386.45604	-618.45572	-643.25380	1774.03117	-554.79104	-606.82929	1739.40100	-432.72760	-610.13968	1758.97301	-669.47704	-533.54967	1699.46214	-527.76717	-531.56059	1697.70375	-572.86553	-573.71081	1688.52228	-336.67560	-599.29741	1511.34166	-203.34660	-574.32195	1569.75496	-169.64259	-479.81158	1575.77350	-181.48171	-343.30583	1543.08965	-196.92829	-345.22884	1529.42891	-161.26201	-576.37819	1750.55686	-768.46746	-483.02427	1611.43967	-923.47773	-487.65351	1682.23750	-936.05819	-387.73582	1716.45667	-916.22798	-268.18799	1730.65887	-876.15794	-259.60755	1717.43478	-913.62596	-754.39248	1235.39500	-475.76723	-754.58258	1245.66080	-683.02055	-740.10129	1255.88900	-504.80371	-737.68815	1261.43143	-641.62666	
121	1.20000000	-646.46717	865.12716	-415.08317	-617.69137	795.61495	-416.52947	-770.58637	497.92471	-429.55077	-830.41885	515.03655	-476.49248	-725.11627	385.88903	-415.45180	-677.87323	381.87722	-466.35228	-634.36407	879.02654	-774.03244	-641.01426	786.73781	-773.68874	-877.20787	581.86367	-787.67832	-939.32443	597.64057	-739.84353	-850.66699	464.52604	-809.45734	-793.49176	450.39910	-763.30905	-666.11059	693.86144	-406.88774	-681.51163	829.20375	-389.58625	-738.00896	726.48679	-386.53352	-693.45301	853.84445	-803.90537	-776.45857	763.26768	-816.78485	-672.89846	1116.79010	-379.49550	-636.06828	1009.48534	-387.53393	-739.21362	974.05612	-419.16610	-778.57482	1083.02815	-402.80629	-692.23752	968.35453	-391.96894	-667.56244	1156.08748	-783.27469	-622.69204	1024.51631	-781.76364	-774.34651	1122.11230	-783.38576	-731.01768	989.39679	-759.50179	-644.28978	1298.55328	-472.95884	-831.67299	1382.41902	-537.66184	-649.04343	1308.37781	-680.62956	-830.51686	1385.47026	-618.70354	-631.95483	1775.18466	-554.01944	-595.63689	1739.90376	-432.31075	-599.04520	1759.64404	-668.53831	-522.68999	1699.58155	-527.28579	-520.78240	1697.88120	-571.89449	-563.44474	1688.78542	-336.15730	-591.68865	1511.57220	-203.04960	-566.07920	1569.71849	-168.95021	-471.10370	1573.96264	-179.92903	-335.35250	1538.60406	-193.87058	-337.71539	1525.22566	-158.33727	-566.17702	1751.21286	-767.85675	-475.15767	1611.85201	-923.95278	-479.59344	1682.43464	-936.61593	-379.23597	1716.06289	-917.41656	-259.20257	1729.35696	-878.29870	-251.00565	1716.04788	-915.79454	-744.42599	1235.42859	-475.57362	-744.45120	1245.83708	-682.81974	-730.23156	1256.48916	-503.77044	-728.27190	1261.65410	-640.91090	
122	1.21000000	-635.99150	864.58646	-415.76794	-604.77320	795.87973	-417.35022	-744.92251	491.93978	-428.35863	-805.22878	507.62108	-474.88567	-696.61634	381.12390	-413.99328	-649.40711	377.97797	-465.10818	-620.79594	880.99732	-775.54555	-624.29697	787.99634	-775.46624	-853.49830	574.82063	-793.67837	-916.44848	589.61623	-746.07102	-824.16559	457.90432	-814.26576	-766.78194	445.68682	-767.62353	-648.68432	692.25104	-406.94681	-669.79860	826.44644	-389.74924	-721.68394	721.62786	-386.00368	-678.31758	853.36917	-806.70401	-758.05477	759.92182	-820.91606	-662.87771	1116.54403	-379.31273	-626.07614	1009.14711	-387.93309	-729.52965	973.74346	-419.08802	-768.61061	1082.77139	-402.96603	-682.39473	968.00953	-392.12636	-658.30004	1157.44400	-784.19008	-612.07125	1026.27841	-782.92914	-764.76936	1122.34255	-782.87966	-719.94945	990.17047	-759.61444	-635.05029	1298.74083	-471.75961	-823.04013	1380.61106	-537.35145	-639.91479	1308.95516	-680.43677	-822.26558	1383.51803	-618.62848	-620.64091	1774.99721	-553.31272	-584.35749	1739.26550	-431.81650	-587.90472	1759.22372	-667.58337	-511.79981	1698.56381	-526.82631	-509.99149	1696.86433	-571.11310	-552.93922	1687.99783	-335.85196	-584.21773	1511.30485	-202.68702	-557.95651	1568.99881	-168.02102	-462.60173	1571.46905	-178.12104	-327.41888	1533.41759	-191.37956	-330.27442	1520.41622	-155.63512	-555.84012	1750.85005	-766.89616	-467.34075	1611.45103	-924.39174	-471.39999	1681.88022	-937.03613	-370.56969	1714.76631	-918.22833	-250.06879	1727.01221	-880.05365	-242.24120	1713.56520	-917.36703	-734.48456	1234.55744	-475.20336	-734.31839	1245.09464	-682.44304	-720.36061	1255.93372	-502.28374	-719.04931	1260.86212	-640.11851	
123	1.22000000	-625.31483	863.25300	-416.50339	-591.73450	795.52725	-418.36441	-719.70207	485.96348	-427.28678	-780.32284	500.00060	-473.64109	-668.57627	376.44909	-412.33744	-621.17984	374.07636	-463.44286	-607.37763	881.84790	-776.79061	-607.38901	787.94494	-776.58881	-829.03059	567.09865	-800.05409	-893.06796	580.27439	-751.98782	-796.99781	450.48980	-819.15660	-739.45997	439.93521	-772.44273	-631.15409	690.17331	-407.27875	-657.72744	823.56152	-389.93165	-705.23830	716.87072	-385.62284	-662.87016	851.40329	-809.26596	-739.03529	755.23163	-825.00804	-652.68884	1115.15279	-379.67522	-615.69344	1007.77709	-388.77056	-719.59946	972.40872	-419.26421	-758.46624	1081.58777	-403.17528	-672.32689	966.71367	-392.47275	-649.35519	1157.88100	-784.95650	-601.78545	1027.19057	-783.53271	-755.43704	1121.72218	-781.96374	-709.14061	990.19560	-759.78258	-625.74987	1297.97677	-470.54870	-814.34477	1377.83966	-537.12102	-630.88274	1308.66731	-680.42028	-813.99886	1380.67834	-617.98501	-609.20775	1773.48952	-552.71221	-573.04356	1737.46238	-431.19935	-576.77300	1757.71896	-666.65915	-500.88867	1696.46129	-526.29591	-499.23113	1694.65229	-570.39956	-542.28156	1686.17670	-335.66523	-577.06275	1510.44881	-202.22734	-549.96733	1567.53711	-166.99380	-454.38014	1568.27677	-176.33413	-319.25966	1527.70662	-189.24941	-322.88241	1515.11364	-153.08918	-545.36629	1749.58361	-765.78305	-459.45149	1610.15600	-924.70803	-463.02505	1680.60026	-937.12650	-361.72025	1712.60538	-918.78002	-240.71582	1723.68738	-881.25970	-233.34964	1710.10296	-918.52002	-724.41571	1232.71229	-474.82437	-724.29708	1243.52559	-682.04976	-710.45179	1254.28850	-500.83798	-709.86197	1259.15514	-639.48809	
